<svg width="20" height="20" viewBox="0 0 20 20" fill="none" xmlns="http://www.w3.org/2000/svg">
<g clip-path="url(#clip0_228_4)">
<path d="M19.8172 16.0673L13.7499 10L19.8172 3.93267C19.8829 3.86705 19.9297 3.7908 19.9603 3.70955C20.0435 3.48706 19.996 3.22769 19.8172 3.04894L16.9511 0.182773C16.7723 0.00402806 16.5123 -0.0428456 16.2905 0.0396521C16.2092 0.0696513 16.133 0.11715 16.0673 0.182148L10 6.24948L3.93267 0.182148C3.86705 0.11715 3.7908 0.0696513 3.70955 0.0396521C3.48706 -0.0434706 3.22769 0.00402806 3.04894 0.182773L0.182773 3.04894C0.00402806 3.22769 -0.0428456 3.48768 0.0396521 3.70955C0.0702762 3.7908 0.11715 3.86705 0.182773 3.93267L6.2501 10L0.182773 16.0673C0.117775 16.133 0.0702762 16.2092 0.0396521 16.2905C-0.0434706 16.5123 0.00402806 16.7723 0.182773 16.9511L3.04894 19.8172C3.22769 19.996 3.48768 20.0428 3.70955 19.9603C3.7908 19.9297 3.86705 19.8829 3.93267 19.8172L10 13.7499L16.0673 19.8172C16.133 19.8829 16.2092 19.9297 16.2905 19.9603C16.5129 20.0435 16.7723 19.996 16.9511 19.8172L19.8172 16.9511C19.996 16.7723 20.0435 16.5123 19.9603 16.2905C19.9297 16.2092 19.8829 16.133 19.8172 16.0673Z" fill="black"/>
</g>
<defs>
<clipPath id="clip0_228_4">
<rect width="20" height="20" fill="white"/>
</clipPath>
</defs>
</svg>
