<svg width="50" height="50" viewBox="0 0 50 50" fill="none" xmlns="http://www.w3.org/2000/svg">
<path d="M23.2381 0.0240173C23.0521 0.0435867 22.4746 0.112072 21.9655 0.160992C18.7353 0.51321 15.1625 1.72641 12.2749 3.44837C8.60415 5.63996 5.61864 8.62403 3.426 12.293C1.713 15.1499 0.577525 18.4764 0.117463 21.979C-0.0391543 23.1824 -0.0391543 26.8416 0.117463 28.045C0.920125 34.1404 3.60219 39.2965 8.14409 43.5133C10.65 45.8516 13.7725 47.6714 17.1691 48.7868C19.8512 49.6771 21.9753 50 25 50C27.2318 50 28.2204 49.9119 30.1879 49.5108C36.9323 48.1313 42.9522 43.8068 46.574 37.731C48.287 34.8741 49.4225 31.5476 49.8825 28.045C50.0392 26.8416 50.0392 23.1824 49.8825 21.979C49.4225 18.4764 48.287 15.1499 46.574 12.293C44.3814 8.62403 41.3959 5.63996 37.7251 3.44837C34.8962 1.75576 31.5192 0.601265 28.1323 0.160992C27.2709 0.0435867 23.8449 -0.0444679 23.2381 0.0240173ZM27.0067 2.99831C32.7134 3.52664 38.2244 6.39331 41.8559 10.7276C46.6229 16.412 48.2381 23.8086 46.2803 30.9508C45.5266 33.7001 44.1954 36.3319 42.3845 38.6311C42.0517 39.0519 41.7678 39.3943 41.7384 39.3943C41.7091 39.3943 41.5525 38.9736 41.3959 38.455C40.5638 35.6764 38.6257 32.6923 36.3841 30.7258C34.9746 29.493 33.0462 28.3092 31.3136 27.6047L30.9221 27.4482L31.2647 27.1938C31.8814 26.734 33.379 25.1588 33.7412 24.5913C35.1312 22.4291 35.7185 20.0907 35.4738 17.7035C35.1116 14.1226 33.0168 11.0406 29.8453 9.38718C23.2478 5.96282 15.28 10.2775 14.5262 17.7035C14.3305 19.6309 14.7024 21.6561 15.5638 23.3683C16.2588 24.7478 17.4139 26.1763 18.5493 27.0373C18.8136 27.2329 19.029 27.4286 19.029 27.458C19.029 27.4873 18.706 27.6341 18.3144 27.7906C15.6715 28.8571 13.0286 30.9312 11.1785 33.3772C10.1116 34.7959 9.09358 36.7918 8.59436 38.4648C8.44753 38.9736 8.29092 39.3943 8.26155 39.3943C8.18324 39.3943 7.06735 37.9463 6.5094 37.1146C5.89272 36.195 4.80619 34.0817 4.3657 32.9565C3.60219 31.0193 3.12255 28.7788 2.95615 26.3524C2.44714 19.3374 5.60885 12.2147 11.1688 7.78262C15.6617 4.20173 21.3587 2.47977 27.0067 2.99831ZM27.0556 11.4124C29.5713 12.1267 31.5388 14.0932 32.3023 16.6468C32.6449 17.8111 32.6644 19.4743 32.361 20.6191C31.4507 24.0141 28.4945 26.2839 25 26.2839C21.5055 26.2839 18.5493 24.0141 17.639 20.6191C17.3356 19.4743 17.3551 17.8111 17.6977 16.6468C18.5591 13.7508 20.7909 11.7842 23.9233 11.1776C24.491 11.07 26.341 11.207 27.0556 11.4124ZM27.0067 29.5224C30.0411 29.9137 32.7232 31.2639 35.0431 33.5729C36.7854 35.3144 37.8818 37.0755 38.5865 39.2965C38.841 40.0889 39.2424 41.9479 39.1641 41.987C39.1543 41.9968 38.8606 42.2218 38.5082 42.4958C35.4933 44.8439 31.8618 46.3506 27.7897 46.9377C26.6543 47.104 23.3457 47.104 22.2103 46.9377C18.1382 46.3506 14.5067 44.8439 11.4918 42.4958C11.1394 42.2218 10.8457 41.9968 10.8359 41.987C10.8164 41.9772 10.8751 41.6054 10.9534 41.1652C11.8442 36.1069 15.4659 31.8705 20.3602 30.1681C22.5235 29.4147 24.5791 29.2093 27.0067 29.5224Z" fill="#093B58"/>
</svg>
