<svg width="20" height="20" viewBox="0 0 20 20" fill="none" xmlns="http://www.w3.org/2000/svg">
<path d="M19.3799 17.0192L14.6424 12.9898C14.1524 12.5492 13.6286 12.3467 13.2055 12.3661C14.3236 11.0561 14.9993 9.35671 14.9993 7.49921C14.9993 3.35733 11.6411 -0.000793457 7.49927 -0.000793457C3.35739 -0.000793457 -0.000732422 3.35733 -0.000732422 7.49921C-0.000732422 11.6411 3.35739 14.9992 7.49927 14.9992C9.35677 14.9992 11.0561 14.3236 12.3661 13.2055C12.3468 13.6286 12.5493 14.1523 12.9899 14.6423L17.0193 19.3798C17.7093 20.1461 18.8361 20.2111 19.5236 19.5236C20.2111 18.8361 20.1468 17.7092 19.3799 17.0192ZM7.49989 12.4998C4.73864 12.4998 2.49989 10.2611 2.49989 7.49983C2.49989 4.73858 4.73864 2.49983 7.49989 2.49983C10.2611 2.49983 12.4999 4.73858 12.4999 7.49983C12.4999 10.2611 10.2611 12.4998 7.49989 12.4998Z" fill="black"/>
</svg>
