<svg width="20" height="20" viewBox="0 0 20 20" fill="none" xmlns="http://www.w3.org/2000/svg" aria-hidden="true" style="position:absolute;width:0;height:0;overflow:hidden">
  <defs>
    <symbol id="icon-cross" viewBox="0 0 32 32">
      <path d="M31.708 25.708 22 16l9.708-9.708a1 1 0 0 0 0-1.414L27.122.292a1 1 0 0 0-1.414-.001L16 9.999 6.292.291a.998.998 0 0 0-1.414.001L.292 4.878a1 1 0 0 0 0 1.414L10 16 .292 25.708a.999.999 0 0 0 0 1.414l4.586 4.586a1 1 0 0 0 1.414 0L16 22l9.708 9.708a1 1 0 0 0 1.414 0l4.586-4.586a.999.999 0 0 0 0-1.414z"/>
    </symbol>
    <symbol id="icon-minus" viewBox="0 0 32 32">
<path d="M0 8.125V11.875C0 12.22 0.28 12.5 0.625 12.5H19.375C19.72 12.5 20 12.22 20 11.875V8.125C20 7.78 19.72 7.5 19.375 7.5H0.625C0.28 7.5 0 7.78 0 8.125Z" fill="black"/>
</symbol>
    <symbol id="icon-plus" viewBox="0 0 32 32">
      <path d="M31 12H20V1a1 1 0 0 0-1-1h-6a1 1 0 0 0-1 1v11H1a1 1 0 0 0-1 1v6a1 1 0 0 0 1 1h11v11a1 1 0 0 0 1 1h6a1 1 0 0 0 1-1V20h11a1 1 0 0 0 1-1v-6a1 1 0 0 0-1-1z"/>
    </symbol>
  </defs>
</svg>